<svg xmlns="http://www.w3.org/2000/svg" viewBox="0 0 1200 620" role="img" aria-labelledby="title desc">
  <title id="title">Geeky High-Level Architecture</title>
  <desc id="desc">Flutter app connects to Firebase (Firestore) and FastAPI backend. Backend uses Redis for async job queuing and Gemini API for AI generation and embeddings.</desc>
  <defs>
    <linearGradient id="bg" x1="0" x2="1" y1="0" y2="1">
      <stop offset="0%" stop-color="#0f1b22"/>
      <stop offset="100%" stop-color="#0a1117"/>
    </linearGradient>
    <linearGradient id="box" x1="0" x2="1" y1="0" y2="1">
      <stop offset="0%" stop-color="#17303c"/>
      <stop offset="100%" stop-color="#132733"/>
    </linearGradient>
    <marker id="arrow" markerWidth="10" markerHeight="10" refX="9" refY="5" orient="auto">
      <path d="M0,0 L10,5 L0,10 z" fill="#6ee9d8"/>
    </marker>
    <style>
      .box { fill: url(#box); stroke: #5df2d6; stroke-opacity: .45; stroke-width: 2; rx: 16; }
      .title { font: 700 28px 'Plus Jakarta Sans', sans-serif; fill: #f2fbf9; }
      .head { font: 700 22px 'Plus Jakarta Sans', sans-serif; fill: #d8fffb; }
      .text { font: 500 15px 'Plus Jakarta Sans', sans-serif; fill: #c3ddd9; }
      .label { font: 700 14px 'Plus Jakarta Sans', sans-serif; fill: #78f2e1; }
      .line { stroke: #6ee9d8; stroke-width: 3; fill: none; marker-end: url(#arrow); }
    </style>
  </defs>

  <rect x="0" y="0" width="1200" height="620" fill="url(#bg)"/>
  <text class="title" x="48" y="58">Geeky System Architecture (Derived from report diagrams)</text>

  <rect class="box" x="56" y="140" width="360" height="220"/>
  <text class="head" x="84" y="188">Flutter App</text>
  <text class="text" x="84" y="222">Riverpod 3.0 + GoRouter</text>
  <text class="text" x="84" y="248">Drift (SQLite) for offline-first data</text>
  <text class="text" x="84" y="274">Feature-first modules and PremiumGate</text>
  <text class="text" x="84" y="300">Sync-on-reconnect interaction queue</text>

  <rect class="box" x="470" y="88" width="320" height="180"/>
  <text class="head" x="496" y="136">Firebase Suite</text>
  <text class="text" x="496" y="168">Firestore: bans, app config, store</text>
  <text class="text" x="496" y="194">Firebase App Check (attestation)</text>

  <rect class="box" x="470" y="318" width="320" height="210"/>
  <text class="head" x="496" y="366">FastAPI Backend</text>
  <text class="text" x="496" y="398">Celery async note processing</text>
  <text class="text" x="496" y="424">RAG reranking + quiz grading</text>
  <text class="text" x="496" y="450">Protocol-first service boundaries</text>
  <text class="text" x="496" y="476">Stateless — no user data stored</text>

  <rect class="box" x="860" y="124" width="280" height="160"/>
  <text class="head" x="884" y="170">Redis</text>
  <text class="text" x="884" y="202">Job queue + async results (2h TTL)</text>
  <text class="text" x="884" y="228">Quota + rate limiting cache</text>

  <rect class="box" x="860" y="338" width="280" height="160"/>
  <text class="head" x="884" y="384">Gemini API</text>
  <text class="text" x="884" y="416">Summaries + Q generation</text>
  <text class="text" x="884" y="442">Embeddings + multimodal analysis</text>

  <path class="line" d="M416 244 H462"/>
  <text class="label" x="422" y="232">Firestore</text>

  <path class="line" d="M416 276 H462 V422"/>
  <text class="label" x="422" y="356">REST</text>

  <path class="line" d="M790 422 H850"/>
  <text class="label" x="804" y="410">AI calls</text>

  <path class="line" d="M790 380 C820 330, 820 220, 850 204"/>
  <text class="label" x="806" y="304">jobs / queue</text>
</svg>
